<svg width="1363" height="163" viewBox="0 0 1363 163" fill="none" xmlns="http://www.w3.org/2000/svg">
<path d="M0 15C0 6.71573 6.71573 0 15 0H37V163H15C6.71573 163 0 156.284 0 148V15Z" fill="#424242"/>
<rect width="1097" height="163" transform="translate(37)" fill="#F0F0F0"/>
<path d="M100.676 57.4375L104.695 43.9375H108.609L102.668 61H100.09L100.676 57.4375ZM96.9727 43.9375L100.98 57.4375L101.59 61H98.9883L93.082 43.9375H96.9727ZM115.312 61.2344C114.328 61.2344 113.445 61.0781 112.664 60.7656C111.883 60.4453 111.219 60.0039 110.672 59.4414C110.133 58.8789 109.719 58.2266 109.43 57.4844C109.141 56.7344 108.996 55.9375 108.996 55.0938V54.625C108.996 53.6641 109.133 52.7852 109.406 51.9883C109.68 51.1914 110.07 50.5 110.578 49.9141C111.094 49.3281 111.719 48.8789 112.453 48.5664C113.188 48.2461 114.016 48.0859 114.938 48.0859C115.836 48.0859 116.633 48.2344 117.328 48.5312C118.023 48.8281 118.605 49.25 119.074 49.7969C119.551 50.3438 119.91 51 120.152 51.7656C120.395 52.5234 120.516 53.3672 120.516 54.2969V55.7031H110.438V53.4531H117.199V53.1953C117.199 52.7266 117.113 52.3086 116.941 51.9414C116.777 51.5664 116.527 51.2695 116.191 51.0508C115.855 50.832 115.426 50.7227 114.902 50.7227C114.457 50.7227 114.074 50.8203 113.754 51.0156C113.434 51.2109 113.172 51.4844 112.969 51.8359C112.773 52.1875 112.625 52.6016 112.523 53.0781C112.43 53.5469 112.383 54.0625 112.383 54.625V55.0938C112.383 55.6016 112.453 56.0703 112.594 56.5C112.742 56.9297 112.949 57.3008 113.215 57.6133C113.488 57.9258 113.816 58.168 114.199 58.3398C114.59 58.5117 115.031 58.5977 115.523 58.5977C116.133 58.5977 116.699 58.4805 117.223 58.2461C117.754 58.0039 118.211 57.6406 118.594 57.1562L120.234 58.9375C119.969 59.3203 119.605 59.6875 119.145 60.0391C118.691 60.3906 118.145 60.6797 117.504 60.9062C116.863 61.125 116.133 61.2344 115.312 61.2344ZM129.293 57.4961C129.293 57.2539 129.223 57.0352 129.082 56.8398C128.941 56.6445 128.68 56.4648 128.297 56.3008C127.922 56.1289 127.379 55.9727 126.668 55.832C126.027 55.6914 125.43 55.5156 124.875 55.3047C124.328 55.0859 123.852 54.8242 123.445 54.5195C123.047 54.2148 122.734 53.8555 122.508 53.4414C122.281 53.0195 122.168 52.5391 122.168 52C122.168 51.4688 122.281 50.9688 122.508 50.5C122.742 50.0312 123.074 49.6172 123.504 49.2578C123.941 48.8906 124.473 48.6055 125.098 48.4023C125.73 48.1914 126.441 48.0859 127.23 48.0859C128.332 48.0859 129.277 48.2617 130.066 48.6133C130.863 48.9648 131.473 49.4492 131.895 50.0664C132.324 50.6758 132.539 51.3711 132.539 52.1523H129.164C129.164 51.8242 129.094 51.5312 128.953 51.2734C128.82 51.0078 128.609 50.8008 128.32 50.6523C128.039 50.4961 127.672 50.418 127.219 50.418C126.844 50.418 126.52 50.4844 126.246 50.6172C125.973 50.7422 125.762 50.9141 125.613 51.1328C125.473 51.3438 125.402 51.5781 125.402 51.8359C125.402 52.0312 125.441 52.207 125.52 52.3633C125.605 52.5117 125.742 52.6484 125.93 52.7734C126.117 52.8984 126.359 53.0156 126.656 53.125C126.961 53.2266 127.336 53.3203 127.781 53.4062C128.695 53.5938 129.512 53.8398 130.23 54.1445C130.949 54.4414 131.52 54.8477 131.941 55.3633C132.363 55.8711 132.574 56.5391 132.574 57.3672C132.574 57.9297 132.449 58.4453 132.199 58.9141C131.949 59.3828 131.59 59.793 131.121 60.1445C130.652 60.4883 130.09 60.7578 129.434 60.9531C128.785 61.1406 128.055 61.2344 127.242 61.2344C126.062 61.2344 125.062 61.0234 124.242 60.6016C123.43 60.1797 122.812 59.6445 122.391 58.9961C121.977 58.3398 121.77 57.668 121.77 56.9805H124.969C124.984 57.4414 125.102 57.8125 125.32 58.0938C125.547 58.375 125.832 58.5781 126.176 58.7031C126.527 58.8281 126.906 58.8906 127.312 58.8906C127.75 58.8906 128.113 58.832 128.402 58.7148C128.691 58.5898 128.91 58.4258 129.059 58.2227C129.215 58.0117 129.293 57.7695 129.293 57.4961ZM140.977 48.3203V50.7109H133.594V48.3203H140.977ZM135.422 45.1914H138.797V57.1797C138.797 57.5469 138.844 57.8281 138.938 58.0234C139.039 58.2188 139.188 58.3555 139.383 58.4336C139.578 58.5039 139.824 58.5391 140.121 58.5391C140.332 58.5391 140.52 58.5312 140.684 58.5156C140.855 58.4922 141 58.4688 141.117 58.4453L141.129 60.9297C140.84 61.0234 140.527 61.0977 140.191 61.1523C139.855 61.207 139.484 61.2344 139.078 61.2344C138.336 61.2344 137.688 61.1133 137.133 60.8711C136.586 60.6211 136.164 60.2227 135.867 59.6758C135.57 59.1289 135.422 58.4102 135.422 57.5195V45.1914ZM146.461 48.3203V61H143.074V48.3203H146.461ZM142.863 45.0156C142.863 44.5234 143.035 44.1172 143.379 43.7969C143.723 43.4766 144.184 43.3164 144.762 43.3164C145.332 43.3164 145.789 43.4766 146.133 43.7969C146.484 44.1172 146.66 44.5234 146.66 45.0156C146.66 45.5078 146.484 45.9141 146.133 46.2344C145.789 46.5547 145.332 46.7148 144.762 46.7148C144.184 46.7148 143.723 46.5547 143.379 46.2344C143.035 45.9141 142.863 45.5078 142.863 45.0156Z" fill="#888888"/>
<path d="M114.117 84.875H122.344V107.164C122.344 109.82 121.789 112.07 120.68 113.914C119.57 115.742 118.016 117.125 116.016 118.062C114.016 119 111.664 119.469 108.961 119.469C106.289 119.469 103.938 119 101.906 118.062C99.8906 117.125 98.3125 115.742 97.1719 113.914C96.0469 112.07 95.4844 109.82 95.4844 107.164V84.875H103.734V107.164C103.734 108.57 103.938 109.719 104.344 110.609C104.75 111.484 105.344 112.125 106.125 112.531C106.906 112.938 107.852 113.141 108.961 113.141C110.086 113.141 111.031 112.938 111.797 112.531C112.562 112.125 113.141 111.484 113.531 110.609C113.922 109.719 114.117 108.57 114.117 107.164V84.875ZM136.266 84.875V119H128.062V84.875H136.266ZM172.523 84.875H180.75V107.164C180.75 109.82 180.195 112.07 179.086 113.914C177.977 115.742 176.422 117.125 174.422 118.062C172.422 119 170.07 119.469 167.367 119.469C164.695 119.469 162.344 119 160.312 118.062C158.297 117.125 156.719 115.742 155.578 113.914C154.453 112.07 153.891 109.82 153.891 107.164V84.875H162.141V107.164C162.141 108.57 162.344 109.719 162.75 110.609C163.156 111.484 163.75 112.125 164.531 112.531C165.312 112.938 166.258 113.141 167.367 113.141C168.492 113.141 169.438 112.938 170.203 112.531C170.969 112.125 171.547 111.484 171.938 110.609C172.328 109.719 172.523 108.57 172.523 107.164V84.875ZM193.078 84.875L198.656 96.2188L204.234 84.875H213.609L204.094 101.797L213.867 119H204.398L198.656 107.445L192.914 119H183.422L193.219 101.797L183.68 84.875H193.078Z" fill="black"/>
<path d="M1134 0H1348C1356.28 0 1363 6.71573 1363 15V148C1363 156.284 1356.28 163 1348 163H1134V0Z" fill="#167CE2"/>
<path d="M1248.5 111.917C1244.51 111.917 1240.55 111.13 1236.86 109.601C1233.17 108.073 1229.82 105.832 1226.99 103.008C1221.29 97.3036 1218.08 89.567 1218.08 81.5C1218.08 73.433 1221.29 65.6964 1226.99 59.9922C1232.7 54.2879 1240.43 51.0833 1248.5 51.0833C1265.23 51.0833 1278.92 63.25 1278.92 78.4583C1278.92 83.2985 1276.99 87.9405 1273.57 91.363C1270.15 94.7856 1265.51 96.7083 1260.67 96.7083H1255.19C1254.28 96.7083 1253.67 97.3167 1253.67 98.2292C1253.67 98.5333 1253.97 98.8375 1253.97 99.1417C1255.19 100.662 1255.8 102.487 1255.8 104.312C1256.1 108.571 1252.76 111.917 1248.5 111.917ZM1248.5 57.1667C1242.05 57.1667 1235.86 59.7303 1231.29 64.2937C1226.73 68.8571 1224.17 75.0464 1224.17 81.5C1224.17 87.9536 1226.73 94.1429 1231.29 98.7063C1235.86 103.27 1242.05 105.833 1248.5 105.833C1249.41 105.833 1250.02 105.225 1250.02 104.312C1250.02 103.704 1249.72 103.4 1249.72 103.096C1248.5 101.575 1247.89 100.054 1247.89 98.2292C1247.89 93.9708 1251.24 90.625 1255.5 90.625H1260.67C1263.89 90.625 1266.99 89.3432 1269.27 87.0615C1271.55 84.7798 1272.83 81.6851 1272.83 78.4583C1272.83 66.5958 1261.88 57.1667 1248.5 57.1667ZM1231.77 75.4167C1234.2 75.4167 1236.33 77.5458 1236.33 79.9792C1236.33 82.4125 1234.2 84.5417 1231.77 84.5417C1229.34 84.5417 1227.21 82.4125 1227.21 79.9792C1227.21 77.5458 1229.34 75.4167 1231.77 75.4167ZM1240.9 63.25C1243.33 63.25 1245.46 65.3792 1245.46 67.8125C1245.46 70.2458 1243.33 72.375 1240.9 72.375C1238.46 72.375 1236.33 70.2458 1236.33 67.8125C1236.33 65.3792 1238.46 63.25 1240.9 63.25ZM1256.1 63.25C1258.54 63.25 1260.67 65.3792 1260.67 67.8125C1260.67 70.2458 1258.54 72.375 1256.1 72.375C1253.67 72.375 1251.54 70.2458 1251.54 67.8125C1251.54 65.3792 1253.67 63.25 1256.1 63.25ZM1265.23 75.4167C1267.66 75.4167 1269.79 77.5458 1269.79 79.9792C1269.79 82.4125 1267.66 84.5417 1265.23 84.5417C1262.8 84.5417 1260.67 82.4125 1260.67 79.9792C1260.67 77.5458 1262.8 75.4167 1265.23 75.4167Z" fill="white"/>
</svg>
