<svg width="1363" height="163" viewBox="0 0 1363 163" fill="none" xmlns="http://www.w3.org/2000/svg">
<path d="M0 15C0 6.71573 6.71573 0 15 0H37V163H15C6.71573 163 0 156.284 0 148V15Z" fill="#424242"/>
<rect width="1097" height="163" transform="translate(37)" fill="#F0F0F0"/>
<path d="M100.676 57.4375L104.695 43.9375H108.609L102.668 61H100.09L100.676 57.4375ZM96.9727 43.9375L100.98 57.4375L101.59 61H98.9883L93.082 43.9375H96.9727ZM115.312 61.2344C114.328 61.2344 113.445 61.0781 112.664 60.7656C111.883 60.4453 111.219 60.0039 110.672 59.4414C110.133 58.8789 109.719 58.2266 109.43 57.4844C109.141 56.7344 108.996 55.9375 108.996 55.0938V54.625C108.996 53.6641 109.133 52.7852 109.406 51.9883C109.68 51.1914 110.07 50.5 110.578 49.9141C111.094 49.3281 111.719 48.8789 112.453 48.5664C113.188 48.2461 114.016 48.0859 114.938 48.0859C115.836 48.0859 116.633 48.2344 117.328 48.5312C118.023 48.8281 118.605 49.25 119.074 49.7969C119.551 50.3438 119.91 51 120.152 51.7656C120.395 52.5234 120.516 53.3672 120.516 54.2969V55.7031H110.438V53.4531H117.199V53.1953C117.199 52.7266 117.113 52.3086 116.941 51.9414C116.777 51.5664 116.527 51.2695 116.191 51.0508C115.855 50.832 115.426 50.7227 114.902 50.7227C114.457 50.7227 114.074 50.8203 113.754 51.0156C113.434 51.2109 113.172 51.4844 112.969 51.8359C112.773 52.1875 112.625 52.6016 112.523 53.0781C112.43 53.5469 112.383 54.0625 112.383 54.625V55.0938C112.383 55.6016 112.453 56.0703 112.594 56.5C112.742 56.9297 112.949 57.3008 113.215 57.6133C113.488 57.9258 113.816 58.168 114.199 58.3398C114.59 58.5117 115.031 58.5977 115.523 58.5977C116.133 58.5977 116.699 58.4805 117.223 58.2461C117.754 58.0039 118.211 57.6406 118.594 57.1562L120.234 58.9375C119.969 59.3203 119.605 59.6875 119.145 60.0391C118.691 60.3906 118.145 60.6797 117.504 60.9062C116.863 61.125 116.133 61.2344 115.312 61.2344ZM129.293 57.4961C129.293 57.2539 129.223 57.0352 129.082 56.8398C128.941 56.6445 128.68 56.4648 128.297 56.3008C127.922 56.1289 127.379 55.9727 126.668 55.832C126.027 55.6914 125.43 55.5156 124.875 55.3047C124.328 55.0859 123.852 54.8242 123.445 54.5195C123.047 54.2148 122.734 53.8555 122.508 53.4414C122.281 53.0195 122.168 52.5391 122.168 52C122.168 51.4688 122.281 50.9688 122.508 50.5C122.742 50.0312 123.074 49.6172 123.504 49.2578C123.941 48.8906 124.473 48.6055 125.098 48.4023C125.73 48.1914 126.441 48.0859 127.23 48.0859C128.332 48.0859 129.277 48.2617 130.066 48.6133C130.863 48.9648 131.473 49.4492 131.895 50.0664C132.324 50.6758 132.539 51.3711 132.539 52.1523H129.164C129.164 51.8242 129.094 51.5312 128.953 51.2734C128.82 51.0078 128.609 50.8008 128.32 50.6523C128.039 50.4961 127.672 50.418 127.219 50.418C126.844 50.418 126.52 50.4844 126.246 50.6172C125.973 50.7422 125.762 50.9141 125.613 51.1328C125.473 51.3438 125.402 51.5781 125.402 51.8359C125.402 52.0312 125.441 52.207 125.52 52.3633C125.605 52.5117 125.742 52.6484 125.93 52.7734C126.117 52.8984 126.359 53.0156 126.656 53.125C126.961 53.2266 127.336 53.3203 127.781 53.4062C128.695 53.5938 129.512 53.8398 130.23 54.1445C130.949 54.4414 131.52 54.8477 131.941 55.3633C132.363 55.8711 132.574 56.5391 132.574 57.3672C132.574 57.9297 132.449 58.4453 132.199 58.9141C131.949 59.3828 131.59 59.793 131.121 60.1445C130.652 60.4883 130.09 60.7578 129.434 60.9531C128.785 61.1406 128.055 61.2344 127.242 61.2344C126.062 61.2344 125.062 61.0234 124.242 60.6016C123.43 60.1797 122.812 59.6445 122.391 58.9961C121.977 58.3398 121.77 57.668 121.77 56.9805H124.969C124.984 57.4414 125.102 57.8125 125.32 58.0938C125.547 58.375 125.832 58.5781 126.176 58.7031C126.527 58.8281 126.906 58.8906 127.312 58.8906C127.75 58.8906 128.113 58.832 128.402 58.7148C128.691 58.5898 128.91 58.4258 129.059 58.2227C129.215 58.0117 129.293 57.7695 129.293 57.4961ZM140.977 48.3203V50.7109H133.594V48.3203H140.977ZM135.422 45.1914H138.797V57.1797C138.797 57.5469 138.844 57.8281 138.938 58.0234C139.039 58.2188 139.188 58.3555 139.383 58.4336C139.578 58.5039 139.824 58.5391 140.121 58.5391C140.332 58.5391 140.52 58.5312 140.684 58.5156C140.855 58.4922 141 58.4688 141.117 58.4453L141.129 60.9297C140.84 61.0234 140.527 61.0977 140.191 61.1523C139.855 61.207 139.484 61.2344 139.078 61.2344C138.336 61.2344 137.688 61.1133 137.133 60.8711C136.586 60.6211 136.164 60.2227 135.867 59.6758C135.57 59.1289 135.422 58.4102 135.422 57.5195V45.1914ZM146.461 48.3203V61H143.074V48.3203H146.461ZM142.863 45.0156C142.863 44.5234 143.035 44.1172 143.379 43.7969C143.723 43.4766 144.184 43.3164 144.762 43.3164C145.332 43.3164 145.789 43.4766 146.133 43.7969C146.484 44.1172 146.66 44.5234 146.66 45.0156C146.66 45.5078 146.484 45.9141 146.133 46.2344C145.789 46.5547 145.332 46.7148 144.762 46.7148C144.184 46.7148 143.723 46.5547 143.379 46.2344C143.035 45.9141 142.863 45.5078 142.863 45.0156Z" fill="#888888"/>
<path d="M118.594 98.4219V104.75H101.086V98.4219H118.594ZM103.828 84.875V119H95.6016V84.875H103.828ZM124.125 84.875V119H115.922V84.875H124.125ZM127.992 106.578V106.086C127.992 104.227 128.258 102.516 128.789 100.953C129.32 99.375 130.102 98.0078 131.133 96.8516C132.164 95.6953 133.438 94.7969 134.953 94.1562C136.469 93.5 138.219 93.1719 140.203 93.1719C142.203 93.1719 143.961 93.5 145.477 94.1562C147.008 94.7969 148.289 95.6953 149.32 96.8516C150.352 98.0078 151.133 99.375 151.664 100.953C152.195 102.516 152.461 104.227 152.461 106.086V106.578C152.461 108.422 152.195 110.133 151.664 111.711C151.133 113.273 150.352 114.641 149.32 115.812C148.289 116.969 147.016 117.867 145.5 118.508C143.984 119.148 142.234 119.469 140.25 119.469C138.266 119.469 136.508 119.148 134.977 118.508C133.445 117.867 132.164 116.969 131.133 115.812C130.102 114.641 129.32 113.273 128.789 111.711C128.258 110.133 127.992 108.422 127.992 106.578ZM135.891 106.086V106.578C135.891 107.531 135.961 108.422 136.102 109.25C136.242 110.078 136.477 110.805 136.805 111.43C137.133 112.039 137.578 112.516 138.141 112.859C138.703 113.203 139.406 113.375 140.25 113.375C141.078 113.375 141.766 113.203 142.312 112.859C142.875 112.516 143.32 112.039 143.648 111.43C143.977 110.805 144.211 110.078 144.352 109.25C144.492 108.422 144.562 107.531 144.562 106.578V106.086C144.562 105.164 144.492 104.297 144.352 103.484C144.211 102.656 143.977 101.93 143.648 101.305C143.32 100.664 142.875 100.164 142.312 99.8047C141.75 99.4453 141.047 99.2656 140.203 99.2656C139.375 99.2656 138.68 99.4453 138.117 99.8047C137.57 100.164 137.133 100.664 136.805 101.305C136.477 101.93 136.242 102.656 136.102 103.484C135.961 104.297 135.891 105.164 135.891 106.086ZM163.688 111.453L168.375 93.6406H173.32L171.562 102.57L166.922 119H162.961L163.688 111.453ZM161.836 93.6406L164.742 111.312L165.07 119H160.266L154.266 93.6406H161.836ZM177.492 110.938L180.422 93.6406H187.992L182.039 119H177.234L177.492 110.938ZM173.883 93.6406L178.617 111.406L179.344 119H175.336L170.789 102.617L169.102 93.6406H173.883ZM218.297 84.875V119H210.07V84.875H218.297ZM228.562 84.875V91.2266H200.039V84.875H228.562ZM225.773 106.578V106.086C225.773 104.227 226.039 102.516 226.57 100.953C227.102 99.375 227.883 98.0078 228.914 96.8516C229.945 95.6953 231.219 94.7969 232.734 94.1562C234.25 93.5 236 93.1719 237.984 93.1719C239.984 93.1719 241.742 93.5 243.258 94.1562C244.789 94.7969 246.07 95.6953 247.102 96.8516C248.133 98.0078 248.914 99.375 249.445 100.953C249.977 102.516 250.242 104.227 250.242 106.086V106.578C250.242 108.422 249.977 110.133 249.445 111.711C248.914 113.273 248.133 114.641 247.102 115.812C246.07 116.969 244.797 117.867 243.281 118.508C241.766 119.148 240.016 119.469 238.031 119.469C236.047 119.469 234.289 119.148 232.758 118.508C231.227 117.867 229.945 116.969 228.914 115.812C227.883 114.641 227.102 113.273 226.57 111.711C226.039 110.133 225.773 108.422 225.773 106.578ZM233.672 106.086V106.578C233.672 107.531 233.742 108.422 233.883 109.25C234.023 110.078 234.258 110.805 234.586 111.43C234.914 112.039 235.359 112.516 235.922 112.859C236.484 113.203 237.188 113.375 238.031 113.375C238.859 113.375 239.547 113.203 240.094 112.859C240.656 112.516 241.102 112.039 241.43 111.43C241.758 110.805 241.992 110.078 242.133 109.25C242.273 108.422 242.344 107.531 242.344 106.578V106.086C242.344 105.164 242.273 104.297 242.133 103.484C241.992 102.656 241.758 101.93 241.43 101.305C241.102 100.664 240.656 100.164 240.094 99.8047C239.531 99.4453 238.828 99.2656 237.984 99.2656C237.156 99.2656 236.461 99.4453 235.898 99.8047C235.352 100.164 234.914 100.664 234.586 101.305C234.258 101.93 234.023 102.656 233.883 103.484C233.742 104.297 233.672 105.164 233.672 106.086ZM266.086 84.875H279.516C282.141 84.875 284.422 85.2656 286.359 86.0469C288.297 86.8281 289.789 87.9844 290.836 89.5156C291.898 91.0469 292.43 92.9375 292.43 95.1875C292.43 97.1406 292.125 98.7734 291.516 100.086C290.906 101.398 290.055 102.484 288.961 103.344C287.883 104.188 286.625 104.883 285.188 105.43L282.492 106.953H271.219L271.172 100.602H279.516C280.562 100.602 281.43 100.414 282.117 100.039C282.805 99.6641 283.32 99.1328 283.664 98.4453C284.023 97.7422 284.203 96.9062 284.203 95.9375C284.203 94.9531 284.023 94.1094 283.664 93.4062C283.305 92.7031 282.773 92.1641 282.07 91.7891C281.383 91.4141 280.531 91.2266 279.516 91.2266H274.312V119H266.086V84.875ZM284.766 119L277.219 103.906L285.938 103.859L293.578 118.648V119H284.766ZM311.836 112.836V93.6406H319.758V119H312.352L311.836 112.836ZM312.586 107.68L314.648 107.633C314.648 109.336 314.445 110.914 314.039 112.367C313.633 113.805 313.031 115.055 312.234 116.117C311.453 117.18 310.484 118.008 309.328 118.602C308.188 119.18 306.867 119.469 305.367 119.469C304.117 119.469 302.969 119.297 301.922 118.953C300.891 118.594 300 118.039 299.25 117.289C298.5 116.523 297.914 115.547 297.492 114.359C297.086 113.156 296.883 111.719 296.883 110.047V93.6406H304.781V110.094C304.781 110.656 304.852 111.141 304.992 111.547C305.133 111.953 305.336 112.297 305.602 112.578C305.867 112.844 306.195 113.047 306.586 113.188C306.992 113.312 307.453 113.375 307.969 113.375C309.156 113.375 310.086 113.125 310.758 112.625C311.43 112.125 311.898 111.445 312.164 110.586C312.445 109.727 312.586 108.758 312.586 107.68ZM331.875 99.0547V119H323.977V93.6406H331.383L331.875 99.0547ZM330.938 105.453L329.086 105.5C329.086 103.562 329.32 101.836 329.789 100.32C330.258 98.7891 330.922 97.4922 331.781 96.4297C332.641 95.3672 333.664 94.5625 334.852 94.0156C336.055 93.4531 337.391 93.1719 338.859 93.1719C340.031 93.1719 341.102 93.3438 342.07 93.6875C343.055 94.0312 343.898 94.5859 344.602 95.3516C345.32 96.1172 345.867 97.1328 346.242 98.3984C346.633 99.6484 346.828 101.195 346.828 103.039V119H338.883V103.016C338.883 102 338.742 101.227 338.461 100.695C338.18 100.148 337.773 99.7734 337.242 99.5703C336.711 99.3672 336.062 99.2656 335.297 99.2656C334.484 99.2656 333.797 99.4219 333.234 99.7344C332.672 100.047 332.219 100.484 331.875 101.047C331.547 101.594 331.305 102.242 331.148 102.992C331.008 103.742 330.938 104.562 330.938 105.453ZM363.773 108.195H357.047C357.047 106.82 357.141 105.609 357.328 104.562C357.531 103.5 357.875 102.547 358.359 101.703C358.844 100.859 359.5 100.078 360.328 99.3594C361.062 98.75 361.695 98.1641 362.227 97.6016C362.758 97.0391 363.164 96.4688 363.445 95.8906C363.727 95.3125 363.867 94.6953 363.867 94.0391C363.867 93.2266 363.75 92.5625 363.516 92.0469C363.297 91.5312 362.961 91.1484 362.508 90.8984C362.07 90.6328 361.516 90.5 360.844 90.5C360.297 90.5 359.781 90.6328 359.297 90.8984C358.828 91.1641 358.445 91.5781 358.148 92.1406C357.852 92.6875 357.688 93.4141 357.656 94.3203H349.711C349.758 91.9922 350.273 90.1016 351.258 88.6484C352.258 87.1797 353.586 86.1094 355.242 85.4375C356.914 84.75 358.781 84.4062 360.844 84.4062C363.125 84.4062 365.086 84.7578 366.727 85.4609C368.367 86.1641 369.625 87.2109 370.5 88.6016C371.375 89.9766 371.812 91.6719 371.812 93.6875C371.812 95.0312 371.555 96.2031 371.039 97.2031C370.539 98.1875 369.859 99.1094 369 99.9688C368.156 100.812 367.211 101.719 366.164 102.688C365.258 103.484 364.641 104.297 364.312 105.125C363.984 105.938 363.805 106.961 363.773 108.195ZM356.086 115.32C356.086 114.195 356.492 113.258 357.305 112.508C358.117 111.742 359.172 111.359 360.469 111.359C361.766 111.359 362.82 111.742 363.633 112.508C364.445 113.258 364.852 114.195 364.852 115.32C364.852 116.445 364.445 117.391 363.633 118.156C362.82 118.906 361.766 119.281 360.469 119.281C359.172 119.281 358.117 118.906 357.305 118.156C356.492 117.391 356.086 116.445 356.086 115.32Z" fill="black"/>
<path d="M1134 0H1348C1356.28 0 1363 6.71573 1363 15V148C1363 156.284 1356.28 163 1348 163H1134V0Z" fill="#167CE2"/>
<path d="M1260.62 78.8847C1263.81 78.8847 1266.93 79.805 1269.59 81.5293C1272.25 83.2536 1274.32 85.7044 1275.54 88.5718C1276.76 91.4391 1277.08 94.5943 1276.46 97.6383C1275.84 100.682 1274.3 103.478 1272.04 105.673C1269.78 107.868 1266.9 109.362 1263.77 109.968C1260.63 110.573 1257.39 110.262 1254.43 109.075C1251.48 107.887 1248.96 105.876 1247.18 103.295C1245.41 100.714 1244.46 97.6806 1244.46 94.5769C1244.46 90.4151 1246.16 86.4237 1249.19 83.4808C1252.22 80.538 1256.33 78.8847 1260.62 78.8847ZM1260.62 73.6539C1256.36 73.6539 1252.19 74.881 1248.65 77.1801C1245.11 79.4791 1242.35 82.7469 1240.72 86.57C1239.09 90.3932 1238.66 94.6001 1239.49 98.6588C1240.32 102.717 1242.37 106.446 1245.39 109.372C1248.4 112.298 1252.24 114.291 1256.41 115.098C1260.59 115.905 1264.92 115.491 1268.86 113.907C1272.79 112.324 1276.16 109.642 1278.52 106.201C1280.89 102.76 1282.15 98.7151 1282.15 94.5769C1282.15 89.0278 1279.88 83.706 1275.85 79.7821C1271.81 75.8583 1266.33 73.6539 1260.62 73.6539Z" fill="white"/>
<path d="M1274.08 47.5H1220.23C1218.8 47.5 1217.43 48.0511 1216.42 49.0321C1215.41 50.013 1214.85 51.3435 1214.85 52.7307V105.038C1214.85 106.426 1215.41 107.756 1216.42 108.737C1217.43 109.718 1218.8 110.269 1220.23 110.269H1231V105.038H1220.23V68.423H1279.46V52.7307C1279.46 51.3435 1278.89 50.013 1277.88 49.0321C1276.87 48.0511 1275.5 47.5 1274.08 47.5ZM1220.23 63.1922V52.7307H1274.08V63.1922H1220.23Z" fill="white"/>
<path d="M1255.23 86.731V102.423L1268.69 94.5771L1255.23 86.731Z" fill="white"/>
</svg>
